[img]http://img828.imageshack.us/img828/8471/haywire.jpg[/img]
[code]
Haywire 2012 CAM READNFO XViD AC3-26K

Imdb: 
http://www.imdb.com/title/tt1506999/

Plot:
A black ops super soldier seeks payback after she is betrayed and set up during a mission.

Sources:
VIDEO - Lum1x THANKS
AUDIO - yOUTUBE and Speeddy :d! thnxs

Notes:
WHY READNFO WELL THE VIDEO HAS FEW SECS MISSING IN VARIOUS PLACES... ASLO THIER IS CAM MOVEMENT WHICH CAUSES BAD AR... WHICH LASTS FOR FEW MINS... THAT BEEN SAID TAKE IT OR LEAVE IT... THNXS TO INSPIRAL FOR THIER GREAT WORK :p

ADDED A FEW FILTERS TO THE VIDEO TO MAKE IT LOOK NICE :p


Greetz:
Xtreme Encode|FYA|ILLUMANTI|CM8|RX|VISION|HDSCENE|NIGHTMAREZ|xTriLL|DTRG|CRYS|REMIXHD|BIDA|RX|REFILL|INSPiRAL|SIC|ZOMBIESZ|HOPE|Anonymous
To all the people who have helped me :P you know who you are

Anything to offer email us @: 26k@hushmail.me

Video
ID                                       : 0
Format                                   : MPEG-4 Visual
Format profile                           : Advanced Simple@L5
Format settings, BVOP                    : 2
Format settings, QPel                    : No
Format settings, GMC                     : No warppoints
Format settings, Matrix                  : Default (H.263)
Codec ID                                 : XVID
Codec ID/Hint                            : XviD
Duration                                 : 1h 26mn
Bit rate                                 : 1 600 Kbps
Width                                    : 720 pixels
Height                                   : 304 pixels
Display aspect ratio                     : 2.35:1
Frame rate                               : 25.000 fps
Color space                              : YUV
Chroma subsampling                       : 4:2:0
Bit depth                                : 8 bits
Scan type                                : Progressive
Compression mode                         : Lossy
Bits/(Pixel*Frame)                       : 0.292
Stream size                              : 993 MiB (92%)
Writing library                          : XviD 63

Audio
ID                                       : 1
Format                                   : AC-3
Format/Info                              : Audio Coding 3
Mode extension                           : CM (complete main)
Codec ID                                 : 2000
Duration                                 : 1h 26mn
Bit rate mode                            : Constant
Bit rate                                 : 128 Kbps
Channel(s)                               : 2 channels
Channel positions                        : Front: L R
Sampling rate                            : 44.1 KHz
Bit depth                                : 16 bits
Compression mode                         : Lossy
Stream size                              : 79.4 MiB (7%)
Alignment                                : Aligned on interleaves
Interleave, duration                     : 35 ms (0.87 video frame)

[/code]
Screens:
[img]http://img42.imageshack.us/img42/3007/vlcsnap2012012521h48m10.png[/img]
[img]http://img51.imageshack.us/img51/8288/vlcsnap2012012521h48m18.png[/img]
[img]http://img576.imageshack.us/img576/9539/vlcsnap2012012521h48m32.png[/img]
[img]http://img821.imageshack.us/img821/6540/vlcsnap2012012521h49m02.png[/img]

Alternative screen shots:


[img]http://img851.imageshack.us/img851/5503/26ks.jpg[/img]
Thank you smallz for banner!